<svg aria-hidden="true" xmlns="http://www.w3.org/2000/svg" viewBox="0 0 842 798" fill="none">
    <g opacity="0.9" filter="url(#filter0_f_3537_14538)">
        <path d="M328.503 695.418C266.439 681.291 204.448 667.043 142.336 653.178C135.234 651.561 130.903 648.353 127.5 642.314C106.141 604.529 84.2693 567.038 62.9197 529.221C60.9482 525.73 60.0891 520.372 61.3266 516.448C99.8789 392.781 138.702 269.14 177.776 145.591C178.943 141.891 182.454 137.733 186.003 135.669C227.663 111.306 269.469 87.1474 311.499 63.3818C315.445 61.1688 321.432 60.3435 325.742 61.2905C451.304 89.4277 576.786 117.82 702.177 146.499C706.64 147.515 711.447 151.208 713.696 155.036C735.966 192.925 757.851 231.035 779.396 269.341C781.448 273.021 782.088 278.74 780.77 282.918C742.391 406.147 703.782 529.221 664.902 652.267C663.594 656.413 659.586 661.039 655.61 663.348C614.442 687.481 573.125 711.307 531.607 734.779C527.438 737.146 521.107 738.064 516.569 737.065C453.873 723.17 391.328 708.796 328.742 694.55L328.471 695.411L328.503 695.418ZM287.882 368.533C264.908 441.149 305.951 513.397 379.832 530.249C453.181 547.013 531.855 501.948 554.609 430.137C577.566 357.688 536.357 285.299 462.497 268.384C389.06 251.565 310.664 296.523 287.859 368.494L287.882 368.533Z"
              fill="url(#paint0_linear_3537_14538)"/>
    </g>
    <defs>
        <filter id="filter0_f_3537_14538" x="0.381458" y="0.534779" width="841.444" height="797.298"
                filterUnits="userSpaceOnUse" color-interpolation-filters="sRGB">
            <feFlood flood-opacity="0" result="BackgroundImageFix"/>
            <feBlend mode="normal" in="SourceGraphic" in2="BackgroundImageFix" result="shape"/>
            <feGaussianBlur stdDeviation="30.1843" result="effect1_foregroundBlur_3537_14538"/>
        </filter>
        <linearGradient id="paint0_linear_3537_14538" x1="327.82" y1="695.4" x2="465.062" y2="92.4792"
                        gradientUnits="userSpaceOnUse">
            <stop stop-color="#745AC6"/>
            <stop offset="1" stop-color="white"/>
        </linearGradient>
    </defs>
</svg>