<svg aria-hidden="true" xmlns="http://www.w3.org/2000/svg" viewBox="0 0 682 616" fill="none">
    <g opacity="0.9" filter="url(#filter0_f_3537_14539)">
        <path d="M542.443 208.513C568.416 246.73 594.288 284.969 620.421 323.08C623.393 327.454 624.065 331.217 622.788 335.909C614.833 365.301 607.303 394.807 599.327 424.21C598.591 426.925 596.302 430 593.626 431.313C509.535 472.905 425.313 514.347 341.003 555.618C338.48 556.856 334.467 557.139 331.508 556.37C296.707 547.413 261.933 538.282 227.241 528.843C223.993 527.949 220.365 525.341 218.544 522.704C165.77 445.607 113.171 368.424 60.7667 291.146C58.8989 288.398 58.2206 284.156 58.9809 281.135C66.5019 251.233 74.3413 221.416 82.4639 191.673C83.2543 188.825 85.8455 185.681 88.6951 184.284C172.468 142.821 256.286 101.55 340.233 60.4298C343.061 59.0429 347.58 58.779 350.893 59.6418C385.313 68.4651 419.654 77.5142 453.922 86.8398C457.368 87.771 461.227 90.5054 463.144 93.2832C489.574 131.704 515.678 170.284 541.869 208.821L542.456 208.533L542.443 208.513ZM396.459 390.21C446.016 365.957 461.118 309.655 430.218 264.145C399.557 218.946 334.321 201.565 285.294 225.531C235.832 249.711 220.747 306.166 251.603 351.697C282.283 396.967 347.315 414.261 396.451 390.241L396.459 390.21Z"
              fill="url(#paint0_linear_3537_14539)"/>
    </g>
    <defs>
        <filter id="filter0_f_3537_14539" x="0.174423" y="0.644638" width="681.729" height="614.653"
                filterUnits="userSpaceOnUse" color-interpolation-filters="sRGB">
            <feFlood flood-opacity="0" result="BackgroundImageFix"/>
            <feBlend mode="normal" in="SourceGraphic" in2="BackgroundImageFix" result="shape"/>
            <feGaussianBlur stdDeviation="29.2507" result="effect1_foregroundBlur_3537_14539"/>
        </filter>
        <linearGradient id="paint0_linear_3537_14539" x1="542.799" y1="208.867" x2="174.787" y2="458.974"
                        gradientUnits="userSpaceOnUse">
            <stop stop-color="#006cb7"/>
            <stop offset="1" stop-color="white"/>
        </linearGradient>
    </defs>
</svg>